<svg width="44" height="44" viewBox="0 0 44 44" fill="none" xmlns="http://www.w3.org/2000/svg">
<path fill-rule="evenodd" clip-rule="evenodd" d="M1.8335 5.20317C1.8335 4.30948 2.18851 3.45239 2.82045 2.82045C3.45238 2.18852 4.30947 1.8335 5.20316 1.8335H38.7935C39.2364 1.83278 39.6751 1.91942 40.0844 2.08846C40.4938 2.2575 40.8658 2.50562 41.1791 2.81862C41.4925 3.13162 41.741 3.50334 41.9105 3.91252C42.08 4.32169 42.1671 4.76028 42.1668 5.20317V38.7935C42.1673 39.2365 42.0804 39.6752 41.9112 40.0846C41.742 40.4939 41.4937 40.8659 41.1805 41.1792C40.8674 41.4925 40.4955 41.741 40.0863 41.9105C39.677 42.08 39.2383 42.1671 38.7953 42.1668H5.20316C4.7605 42.1668 4.32217 42.0796 3.91322 41.9102C3.50428 41.7407 3.13273 41.4923 2.8198 41.1792C2.50687 40.8661 2.2587 40.4944 2.08947 40.0854C1.92024 39.6764 1.83326 39.238 1.8335 38.7953V5.20317ZM17.7982 17.2115H23.2597V19.9542C24.048 18.3775 26.0647 16.9585 29.0952 16.9585C34.905 16.9585 36.2818 20.099 36.2818 25.8612V36.5348H30.4023V27.1738C30.4023 23.8922 29.614 22.0405 27.612 22.0405C24.8345 22.0405 23.6795 24.037 23.6795 27.1738V36.5348H17.7982V17.2115ZM7.71483 36.2837H13.5962V16.9585H7.71483V36.2818V36.2837ZM14.4377 10.6555C14.4488 11.1591 14.3591 11.6598 14.1741 12.1282C13.9891 12.5967 13.7123 13.0235 13.3601 13.3836C13.0079 13.7436 12.5873 14.0297 12.123 14.225C11.6587 14.4203 11.1601 14.5209 10.6564 14.5209C10.1527 14.5209 9.65411 14.4203 9.18983 14.225C8.72555 14.0297 8.30496 13.7436 7.95274 13.3836C7.60052 13.0235 7.32377 12.5967 7.13872 12.1282C6.95368 11.6598 6.86407 11.1591 6.87516 10.6555C6.89693 9.66707 7.30487 8.72645 8.01162 8.03509C8.71837 7.34373 9.66774 6.9566 10.6564 6.9566C11.6451 6.9566 12.5945 7.34373 13.3012 8.03509C14.008 8.72645 14.4159 9.66707 14.4377 10.6555V10.6555Z" fill="url(#paint0_linear_46_13)"/>
<defs>
<linearGradient id="paint0_linear_46_13" x1="22.0002" y1="1.8335" x2="22.0002" y2="42.1668" gradientUnits="userSpaceOnUse">
<stop stop-color="#29FFCA"/>
<stop offset="1" stop-color="#003A9C"/>
</linearGradient>
</defs>
</svg>
