<svg width="51" height="39" viewBox="0 0 51 39" fill="none" xmlns="http://www.w3.org/2000/svg">
<path d="M50.4 4.62611C48.5466 5.40786 46.5555 5.93608 44.4624 6.17483C46.6221 4.94471 48.2379 3.00866 49.0083 0.727914C46.9791 1.87517 44.7583 2.68271 42.4425 3.11543C40.8851 1.53262 38.8223 0.483513 36.5744 0.13098C34.3264 -0.221552 32.0191 0.142215 30.0106 1.16581C28.0021 2.1894 26.4048 3.81554 25.4667 5.79178C24.5286 7.76801 24.3022 9.98376 24.8227 12.095C20.7111 11.8985 16.6889 10.8813 13.0171 9.10937C9.34533 7.33744 6.10598 4.85041 3.50931 1.80969C2.62144 3.26755 2.11091 4.95783 2.11091 6.75797C2.10992 8.37851 2.52917 9.97423 3.33147 11.4036C4.13376 12.8329 5.29429 14.0516 6.71009 14.9516C5.06814 14.9019 3.46242 14.4795 2.02657 13.7198V13.8466C2.0264 16.1194 2.85236 18.3224 4.36429 20.0816C5.87623 21.8408 7.98101 23.0479 10.3215 23.498C8.79832 23.8904 7.20138 23.9482 5.6513 23.6671C6.31165 25.6227 7.59795 27.3329 9.33012 28.5581C11.0623 29.7834 13.1536 30.4624 15.3113 30.5C11.6485 33.237 7.12492 34.7217 2.46828 34.7151C1.64341 34.7153 0.81923 34.6695 0 34.5778C4.72675 37.4707 10.229 39.0059 15.8485 39C34.8711 39 45.2703 24.003 45.2703 10.9963C45.2703 10.5738 45.2592 10.147 45.2393 9.72441C47.262 8.33199 49.0081 6.60774 50.3956 4.63245L50.4 4.62611V4.62611Z" fill="url(#paint0_linear_46_12)"/>
<defs>
<linearGradient id="paint0_linear_46_12" x1="25.2" y1="0" x2="25.2" y2="39" gradientUnits="userSpaceOnUse">
<stop stop-color="#29FFCA"/>
<stop offset="1" stop-color="#003A9C"/>
</linearGradient>
</defs>
</svg>
